<mxfile host="app.diagrams.net" agent="Mozilla/5.0 (Macintosh; Intel Mac OS X 10_15_7) AppleWebKit/605.1.15 (KHTML, like Gecko) Version/18.3.1 Safari/605.1.15" version="26.2.12">
  <diagram name="Seite-1" id="WuVaBYyhBkmRj32EmmQb">
    <mxGraphModel dx="2954" dy="1408" grid="1" gridSize="10" guides="1" tooltips="1" connect="1" arrows="1" fold="1" page="1" pageScale="1" pageWidth="827" pageHeight="1169" math="0" shadow="0">
      <root>
        <mxCell id="0" />
        <mxCell id="1" parent="0" />
        <mxCell id="opyRgI_6nJXFW0tpvUB6-30" value="" style="rounded=1;whiteSpace=wrap;html=1;" vertex="1" parent="1">
          <mxGeometry x="560" width="560" height="1000" as="geometry" />
        </mxCell>
        <mxCell id="opyRgI_6nJXFW0tpvUB6-32" value="" style="rounded=1;whiteSpace=wrap;html=1;" vertex="1" parent="1">
          <mxGeometry x="1160" width="560" height="1000" as="geometry" />
        </mxCell>
        <mxCell id="opyRgI_6nJXFW0tpvUB6-33" value="Zone: germanywestcentral-3" style="text;html=1;align=center;verticalAlign=middle;whiteSpace=wrap;rounded=0;" vertex="1" parent="1">
          <mxGeometry x="1340" y="20" width="200" height="30" as="geometry" />
        </mxCell>
        <mxCell id="opyRgI_6nJXFW0tpvUB6-28" value="" style="rounded=1;whiteSpace=wrap;html=1;" vertex="1" parent="1">
          <mxGeometry x="-40" width="560" height="1000" as="geometry" />
        </mxCell>
        <mxCell id="opyRgI_6nJXFW0tpvUB6-16" value="" style="rounded=1;whiteSpace=wrap;html=1;fillOpacity=75;fillColor=#f5f5f5;fontColor=#333333;strokeColor=#666666;" vertex="1" parent="1">
          <mxGeometry x="1200" y="80" width="480" height="600" as="geometry" />
        </mxCell>
        <mxCell id="opyRgI_6nJXFW0tpvUB6-3" value="" style="rounded=1;whiteSpace=wrap;html=1;fillOpacity=75;fillColor=#f5f5f5;fontColor=#333333;strokeColor=#666666;" vertex="1" parent="1">
          <mxGeometry x="600" y="70" width="480" height="600" as="geometry" />
        </mxCell>
        <mxCell id="0wmGSbIT42nQwoMOKgrX-37" value="" style="rounded=1;whiteSpace=wrap;html=1;fillOpacity=75;fillColor=#f5f5f5;fontColor=#333333;strokeColor=#666666;" parent="1" vertex="1">
          <mxGeometry y="720" width="480" height="240" as="geometry" />
        </mxCell>
        <mxCell id="0wmGSbIT42nQwoMOKgrX-27" value="" style="rounded=1;whiteSpace=wrap;html=1;fillOpacity=75;fillColor=#f5f5f5;fontColor=#333333;strokeColor=#666666;" parent="1" vertex="1">
          <mxGeometry y="80" width="480" height="600" as="geometry" />
        </mxCell>
        <mxCell id="0wmGSbIT42nQwoMOKgrX-4" value="" style="rounded=1;whiteSpace=wrap;html=1;fillColor=#f8cecc;strokeColor=#b85450;" parent="1" vertex="1">
          <mxGeometry x="-200" y="520" width="1960" height="80" as="geometry" />
        </mxCell>
        <mxCell id="0wmGSbIT42nQwoMOKgrX-3" value="" style="rounded=1;whiteSpace=wrap;html=1;fillColor=#d5e8d4;strokeColor=#82b366;" parent="1" vertex="1">
          <mxGeometry x="-200" y="400" width="1960" height="80" as="geometry" />
        </mxCell>
        <mxCell id="0wmGSbIT42nQwoMOKgrX-2" value="" style="rounded=1;whiteSpace=wrap;html=1;fillColor=#dae8fc;strokeColor=#6c8ebf;" parent="1" vertex="1">
          <mxGeometry x="-200" y="280" width="1960" height="80" as="geometry" />
        </mxCell>
        <mxCell id="0wmGSbIT42nQwoMOKgrX-1" value="" style="rounded=1;whiteSpace=wrap;html=1;fillColor=#f5f5f5;fontColor=#333333;strokeColor=#666666;fillOpacity=50;" parent="1" vertex="1">
          <mxGeometry x="200" y="120" width="240" height="520" as="geometry" />
        </mxCell>
        <mxCell id="0wmGSbIT42nQwoMOKgrX-5" value="Tablet 1&lt;div&gt;Leader&lt;/div&gt;" style="rounded=1;whiteSpace=wrap;html=1;fillColor=#dae8fc;strokeColor=#6c8ebf;" parent="1" vertex="1">
          <mxGeometry x="260" y="300" width="120" height="40" as="geometry" />
        </mxCell>
        <mxCell id="0wmGSbIT42nQwoMOKgrX-8" value="Table&lt;div&gt;product&lt;/div&gt;" style="text;html=1;align=center;verticalAlign=middle;whiteSpace=wrap;rounded=0;" parent="1" vertex="1">
          <mxGeometry x="-150" y="305" width="60" height="30" as="geometry" />
        </mxCell>
        <mxCell id="0wmGSbIT42nQwoMOKgrX-9" value="Table&lt;div&gt;customer&lt;/div&gt;" style="text;html=1;align=center;verticalAlign=middle;whiteSpace=wrap;rounded=0;" parent="1" vertex="1">
          <mxGeometry x="-150" y="425" width="60" height="30" as="geometry" />
        </mxCell>
        <mxCell id="0wmGSbIT42nQwoMOKgrX-10" value="Table&lt;div&gt;corder&lt;/div&gt;" style="text;html=1;align=center;verticalAlign=middle;whiteSpace=wrap;rounded=0;" parent="1" vertex="1">
          <mxGeometry x="-150" y="545" width="60" height="30" as="geometry" />
        </mxCell>
        <mxCell id="0wmGSbIT42nQwoMOKgrX-14" value="Tablet 1&lt;div&gt;Follower&lt;/div&gt;" style="rounded=1;whiteSpace=wrap;html=1;fillColor=#f8cecc;strokeColor=#b85450;" parent="1" vertex="1">
          <mxGeometry x="260" y="540" width="120" height="40" as="geometry" />
        </mxCell>
        <mxCell id="0wmGSbIT42nQwoMOKgrX-17" value="Tablet 1&lt;div&gt;Follower&lt;/div&gt;" style="rounded=1;whiteSpace=wrap;html=1;fillColor=#d5e8d4;strokeColor=#82b366;" parent="1" vertex="1">
          <mxGeometry x="260" y="420" width="120" height="40" as="geometry" />
        </mxCell>
        <mxCell id="0wmGSbIT42nQwoMOKgrX-20" value="yb-tserver-0" style="text;html=1;align=center;verticalAlign=middle;whiteSpace=wrap;rounded=0;" parent="1" vertex="1">
          <mxGeometry x="275" y="140" width="90" height="30" as="geometry" />
        </mxCell>
        <mxCell id="0wmGSbIT42nQwoMOKgrX-24" value="Distributed Txn Mgr" style="rounded=1;whiteSpace=wrap;html=1;fillColor=#e1d5e7;strokeColor=#9673a6;" parent="1" vertex="1">
          <mxGeometry x="260" y="200" width="120" height="40" as="geometry" />
        </mxCell>
        <mxCell id="0wmGSbIT42nQwoMOKgrX-28" value="" style="rounded=1;whiteSpace=wrap;html=1;fillColor=#f5f5f5;fontColor=#333333;strokeColor=#666666;fillOpacity=50;" parent="1" vertex="1">
          <mxGeometry x="200" y="760" width="240" height="160" as="geometry" />
        </mxCell>
        <mxCell id="0wmGSbIT42nQwoMOKgrX-31" value="yb-master-0" style="text;html=1;align=center;verticalAlign=middle;whiteSpace=wrap;rounded=0;" parent="1" vertex="1">
          <mxGeometry x="275" y="780" width="90" height="30" as="geometry" />
        </mxCell>
        <mxCell id="0wmGSbIT42nQwoMOKgrX-34" value="syscatalog&lt;div&gt;Leader&lt;/div&gt;" style="rounded=1;whiteSpace=wrap;html=1;fillColor=#e1d5e7;strokeColor=#9673a6;" parent="1" vertex="1">
          <mxGeometry x="260" y="840" width="120" height="40" as="geometry" />
        </mxCell>
        <mxCell id="0wmGSbIT42nQwoMOKgrX-38" value="StatefulSet&lt;div&gt;yb-tserver&lt;/div&gt;" style="text;html=1;align=center;verticalAlign=middle;whiteSpace=wrap;rounded=0;" parent="1" vertex="1">
          <mxGeometry x="70" y="140" width="60" height="30" as="geometry" />
        </mxCell>
        <mxCell id="0wmGSbIT42nQwoMOKgrX-39" value="StatefulSet&lt;div&gt;yb-master&lt;/div&gt;" style="text;html=1;align=center;verticalAlign=middle;whiteSpace=wrap;rounded=0;" parent="1" vertex="1">
          <mxGeometry x="70" y="780" width="60" height="30" as="geometry" />
        </mxCell>
        <mxCell id="opyRgI_6nJXFW0tpvUB6-2" value="" style="rounded=1;whiteSpace=wrap;html=1;fillOpacity=75;fillColor=#f5f5f5;fontColor=#333333;strokeColor=#666666;" vertex="1" parent="1">
          <mxGeometry x="600" y="710" width="480" height="240" as="geometry" />
        </mxCell>
        <mxCell id="opyRgI_6nJXFW0tpvUB6-4" value="" style="rounded=1;whiteSpace=wrap;html=1;fillColor=#f5f5f5;fontColor=#333333;strokeColor=#666666;fillOpacity=50;" vertex="1" parent="1">
          <mxGeometry x="800" y="110" width="240" height="520" as="geometry" />
        </mxCell>
        <mxCell id="opyRgI_6nJXFW0tpvUB6-5" value="Tablet 1&lt;div&gt;Follower&lt;/div&gt;" style="rounded=1;whiteSpace=wrap;html=1;fillColor=#dae8fc;strokeColor=#6c8ebf;" vertex="1" parent="1">
          <mxGeometry x="860" y="290" width="120" height="40" as="geometry" />
        </mxCell>
        <mxCell id="opyRgI_6nJXFW0tpvUB6-6" value="Tablet 1&lt;div&gt;Follower&lt;/div&gt;" style="rounded=1;whiteSpace=wrap;html=1;fillColor=#f8cecc;strokeColor=#b85450;" vertex="1" parent="1">
          <mxGeometry x="860" y="530" width="120" height="40" as="geometry" />
        </mxCell>
        <mxCell id="opyRgI_6nJXFW0tpvUB6-7" value="Tablet 1&lt;div&gt;Leader&lt;/div&gt;" style="rounded=1;whiteSpace=wrap;html=1;fillColor=#d5e8d4;strokeColor=#82b366;" vertex="1" parent="1">
          <mxGeometry x="860" y="410" width="120" height="40" as="geometry" />
        </mxCell>
        <mxCell id="opyRgI_6nJXFW0tpvUB6-8" value="yb-tserver-0" style="text;html=1;align=center;verticalAlign=middle;whiteSpace=wrap;rounded=0;" vertex="1" parent="1">
          <mxGeometry x="875" y="130" width="90" height="30" as="geometry" />
        </mxCell>
        <mxCell id="opyRgI_6nJXFW0tpvUB6-9" value="Distributed Txn Mgr" style="rounded=1;whiteSpace=wrap;html=1;fillColor=#e1d5e7;strokeColor=#9673a6;" vertex="1" parent="1">
          <mxGeometry x="860" y="190" width="120" height="40" as="geometry" />
        </mxCell>
        <mxCell id="opyRgI_6nJXFW0tpvUB6-10" value="" style="rounded=1;whiteSpace=wrap;html=1;fillColor=#f5f5f5;fontColor=#333333;strokeColor=#666666;fillOpacity=50;" vertex="1" parent="1">
          <mxGeometry x="800" y="750" width="240" height="160" as="geometry" />
        </mxCell>
        <mxCell id="opyRgI_6nJXFW0tpvUB6-11" value="yb-master-0" style="text;html=1;align=center;verticalAlign=middle;whiteSpace=wrap;rounded=0;" vertex="1" parent="1">
          <mxGeometry x="875" y="770" width="90" height="30" as="geometry" />
        </mxCell>
        <mxCell id="opyRgI_6nJXFW0tpvUB6-12" value="syscatalog&lt;div&gt;Follower&lt;/div&gt;" style="rounded=1;whiteSpace=wrap;html=1;fillColor=#e1d5e7;strokeColor=#9673a6;" vertex="1" parent="1">
          <mxGeometry x="860" y="830" width="120" height="40" as="geometry" />
        </mxCell>
        <mxCell id="opyRgI_6nJXFW0tpvUB6-13" value="StatefulSet&lt;div&gt;yb-tserver&lt;/div&gt;" style="text;html=1;align=center;verticalAlign=middle;whiteSpace=wrap;rounded=0;" vertex="1" parent="1">
          <mxGeometry x="670" y="130" width="60" height="30" as="geometry" />
        </mxCell>
        <mxCell id="opyRgI_6nJXFW0tpvUB6-14" value="StatefulSet&lt;div&gt;yb-master&lt;/div&gt;" style="text;html=1;align=center;verticalAlign=middle;whiteSpace=wrap;rounded=0;" vertex="1" parent="1">
          <mxGeometry x="670" y="770" width="60" height="30" as="geometry" />
        </mxCell>
        <mxCell id="opyRgI_6nJXFW0tpvUB6-15" value="" style="rounded=1;whiteSpace=wrap;html=1;fillOpacity=75;fillColor=#f5f5f5;fontColor=#333333;strokeColor=#666666;" vertex="1" parent="1">
          <mxGeometry x="1200" y="720" width="480" height="240" as="geometry" />
        </mxCell>
        <mxCell id="opyRgI_6nJXFW0tpvUB6-17" value="" style="rounded=1;whiteSpace=wrap;html=1;fillColor=#f5f5f5;fontColor=#333333;strokeColor=#666666;fillOpacity=50;" vertex="1" parent="1">
          <mxGeometry x="1400" y="120" width="240" height="520" as="geometry" />
        </mxCell>
        <mxCell id="opyRgI_6nJXFW0tpvUB6-18" value="Tablet 1&lt;div&gt;Follower&lt;/div&gt;" style="rounded=1;whiteSpace=wrap;html=1;fillColor=#dae8fc;strokeColor=#6c8ebf;" vertex="1" parent="1">
          <mxGeometry x="1460" y="300" width="120" height="40" as="geometry" />
        </mxCell>
        <mxCell id="opyRgI_6nJXFW0tpvUB6-19" value="Tablet 1&lt;div&gt;Leader&lt;/div&gt;" style="rounded=1;whiteSpace=wrap;html=1;fillColor=#f8cecc;strokeColor=#b85450;" vertex="1" parent="1">
          <mxGeometry x="1460" y="540" width="120" height="40" as="geometry" />
        </mxCell>
        <mxCell id="opyRgI_6nJXFW0tpvUB6-20" value="Tablet 1&lt;div&gt;Follower&lt;/div&gt;" style="rounded=1;whiteSpace=wrap;html=1;fillColor=#d5e8d4;strokeColor=#82b366;" vertex="1" parent="1">
          <mxGeometry x="1460" y="420" width="120" height="40" as="geometry" />
        </mxCell>
        <mxCell id="opyRgI_6nJXFW0tpvUB6-21" value="yb-tserver-0" style="text;html=1;align=center;verticalAlign=middle;whiteSpace=wrap;rounded=0;" vertex="1" parent="1">
          <mxGeometry x="1475" y="140" width="90" height="30" as="geometry" />
        </mxCell>
        <mxCell id="opyRgI_6nJXFW0tpvUB6-22" value="Distributed Txn Mgr" style="rounded=1;whiteSpace=wrap;html=1;fillColor=#e1d5e7;strokeColor=#9673a6;" vertex="1" parent="1">
          <mxGeometry x="1460" y="200" width="120" height="40" as="geometry" />
        </mxCell>
        <mxCell id="opyRgI_6nJXFW0tpvUB6-23" value="" style="rounded=1;whiteSpace=wrap;html=1;fillColor=#f5f5f5;fontColor=#333333;strokeColor=#666666;fillOpacity=50;" vertex="1" parent="1">
          <mxGeometry x="1400" y="760" width="240" height="160" as="geometry" />
        </mxCell>
        <mxCell id="opyRgI_6nJXFW0tpvUB6-24" value="yb-master-0" style="text;html=1;align=center;verticalAlign=middle;whiteSpace=wrap;rounded=0;" vertex="1" parent="1">
          <mxGeometry x="1475" y="780" width="90" height="30" as="geometry" />
        </mxCell>
        <mxCell id="opyRgI_6nJXFW0tpvUB6-25" value="syscatalog&lt;div&gt;Follower&lt;/div&gt;" style="rounded=1;whiteSpace=wrap;html=1;fillColor=#e1d5e7;strokeColor=#9673a6;" vertex="1" parent="1">
          <mxGeometry x="1460" y="840" width="120" height="40" as="geometry" />
        </mxCell>
        <mxCell id="opyRgI_6nJXFW0tpvUB6-26" value="StatefulSet&lt;div&gt;yb-tserver&lt;/div&gt;" style="text;html=1;align=center;verticalAlign=middle;whiteSpace=wrap;rounded=0;" vertex="1" parent="1">
          <mxGeometry x="1270" y="140" width="60" height="30" as="geometry" />
        </mxCell>
        <mxCell id="opyRgI_6nJXFW0tpvUB6-27" value="StatefulSet&lt;div&gt;yb-master&lt;/div&gt;" style="text;html=1;align=center;verticalAlign=middle;whiteSpace=wrap;rounded=0;" vertex="1" parent="1">
          <mxGeometry x="1270" y="780" width="60" height="30" as="geometry" />
        </mxCell>
        <mxCell id="opyRgI_6nJXFW0tpvUB6-29" value="Zone: germanywestcentral-1" style="text;html=1;align=center;verticalAlign=middle;whiteSpace=wrap;rounded=0;" vertex="1" parent="1">
          <mxGeometry x="140" y="20" width="200" height="30" as="geometry" />
        </mxCell>
        <mxCell id="opyRgI_6nJXFW0tpvUB6-31" value="Zone: germanywestcentral-2" style="text;html=1;align=center;verticalAlign=middle;whiteSpace=wrap;rounded=0;" vertex="1" parent="1">
          <mxGeometry x="740" y="20" width="200" height="30" as="geometry" />
        </mxCell>
      </root>
    </mxGraphModel>
  </diagram>
</mxfile>
